<svg width="175" height="60" viewBox="0 0 175 60" fill="none" xmlns="http://www.w3.org/2000/svg">
  <title>Zap Pilot</title>
  <g transform="translate(4 6) scale(0.75)">
    <g stroke="#6a5e44" stroke-linecap="round">
      <path d="M16.5 49.5 A24 24 0 1 1 47.5 49.5" fill="none" stroke-width="3"/>
      <g stroke-width="1.4" stroke-opacity="0.4">
        <line x1="32" y1="8" x2="32" y2="12.5"/>
        <line x1="45.8" y1="12.3" x2="43.5" y2="15.6"/>
        <line x1="18.2" y1="12.3" x2="20.5" y2="15.6"/>
        <line x1="54.6" y1="23.8" x2="50.8" y2="25.2"/>
        <line x1="9.4" y1="23.8" x2="13.2" y2="25.2"/>
      </g>
      <line x1="32" y1="32" x2="42.5" y2="13.8" stroke-width="2.6"/>
    </g>
    <circle cx="32" cy="32" r="3" fill="#6a5e44"/>
  </g>
  <path d="M72.38 41L61.36 41Q60.88 41 60.70 40.73Q60.51 40.46 60.71 40.01L70.54 18.08Q70.74 17.54 70.17 17.54L66.77 17.54Q65.51 17.54 64.47 18.34Q63.43 19.14 62.75 21.38L62.24 23.08Q62.14 23.52 61.77 23.52Q61.26 23.52 61.33 22.95L61.94 16.62Q62.01 15.84 62.52 15.84Q62.75 15.84 62.96 16.01Q63.16 16.18 63.66 16.35Q64.15 16.52 65.24 16.52L72.75 16.52Q73.23 16.52 73.41 16.77Q73.60 17.03 73.40 17.51L63.57 39.44Q63.37 39.98 63.94 39.98L67.72 39.98Q68.67 39.98 69.59 39.71Q70.51 39.44 71.22 38.57Q71.93 37.70 72.27 35.97L72.72 33.69Q72.82 33.25 73.23 33.25Q73.70 33.25 73.63 33.83L73.23 40.22Q73.16 41 72.38 41 M78.60 41.31Q77.17 41.31 76.25 40.41Q75.33 39.50 75.33 38.01Q75.33 36.55 76.25 35.24Q77.17 33.93 78.77 32.87Q80.37 31.82 82.41 31.17Q82.85 31.04 82.85 30.60L82.85 27.50Q82.85 25.87 82.34 25.17Q81.83 24.48 80.94 24.48Q80.09 24.48 79.40 25.24Q78.70 26.01 78.39 27.81Q78.22 28.90 77.66 29.39Q77.10 29.88 76.52 29.88Q75.57 29.88 75.57 28.93Q75.57 27.94 76.13 26.98Q76.69 26.01 77.61 25.21Q78.53 24.41 79.62 23.93Q80.71 23.46 81.79 23.46Q85.16 23.46 85.16 27.37L85.16 37.77Q85.16 39.20 85.87 39.20Q86.32 39.20 86.69 38.60Q87.06 38.01 87.06 36.58Q87.06 36.04 87.51 36.04Q87.91 36.04 87.91 36.61Q87.91 39.10 87.05 40.20Q86.18 41.31 85.09 41.31Q84.28 41.31 83.80 40.64Q83.32 39.98 83.15 39.06Q83.12 38.72 82.87 38.70Q82.61 38.69 82.37 39.03Q81.56 40.15 80.71 40.73Q79.86 41.31 78.60 41.31M79.52 39.74Q80.40 39.74 81.15 39.11Q81.90 38.48 82.37 37.43Q82.85 36.38 82.85 35.05L82.85 32.57Q82.85 31.92 82.13 32.19Q80.06 32.94 78.92 34.25Q77.78 35.56 77.78 37.40Q77.78 39.74 79.52 39.74 M95.16 47.97L89 47.97Q88.49 47.97 88.49 47.60Q88.49 47.22 88.93 47.19L89.41 47.12Q90.12 47.02 90.34 46.71Q90.57 46.41 90.57 45.69L90.57 27.30Q90.57 26.69 90.38 26.46Q90.19 26.24 89.72 26.18L89 26.07Q88.56 26.04 88.56 25.70Q88.56 25.43 89.10 25.33Q90.16 25.16 90.72 24.78Q91.28 24.41 91.89 23.86Q92.20 23.56 92.40 23.56Q92.71 23.56 92.71 23.97L92.71 25.02Q92.71 25.26 92.91 25.34Q93.12 25.43 93.39 25.16L93.76 24.78Q94.44 24.10 95.16 23.78Q95.87 23.46 96.79 23.46Q98.35 23.46 99.56 24.49Q100.77 25.53 101.46 27.37Q102.16 29.20 102.16 31.68Q102.16 34.51 101.28 36.68Q100.39 38.86 98.84 40.08Q97.30 41.31 95.29 41.31Q94.27 41.31 93.49 40.93Q92.88 40.66 92.88 41.31L92.88 45.69Q92.88 46.41 93.10 46.66Q93.32 46.92 94.03 47.02L95.29 47.19Q95.67 47.26 95.67 47.56Q95.67 47.97 95.16 47.97M95.39 40.46Q97.30 40.46 98.47 38.21Q99.64 35.97 99.64 32.16Q99.64 28.66 98.62 26.82Q97.60 24.99 95.73 24.99Q94.58 24.99 93.73 25.94Q92.88 26.89 92.88 28.59L92.88 37.16Q92.88 38.69 93.58 39.57Q94.27 40.46 95.39 40.46  M117.02 41L110.12 41Q109.61 41 109.61 40.63Q109.61 40.32 110.05 40.22L110.83 40.08Q111.54 39.95 111.77 39.71Q111.99 39.47 111.99 38.76L111.99 18.76Q111.99 18.05 111.77 17.81Q111.54 17.57 110.83 17.44L110.05 17.30Q109.61 17.20 109.61 16.89Q109.61 16.52 110.12 16.52L117.22 16.52Q119.23 16.52 120.76 17.39Q122.29 18.25 123.14 19.78Q123.99 21.31 123.99 23.32Q123.99 25.26 123.14 26.75Q122.29 28.25 120.79 29.08Q119.30 29.92 117.32 29.92L114.88 29.92Q114.40 29.92 114.40 30.39L114.40 38.62Q114.40 39.33 114.67 39.59Q114.94 39.84 115.90 40.01L117.15 40.22Q117.53 40.29 117.53 40.59Q117.53 41 117.02 41M114.40 18.73L114.40 27.20Q114.40 29.07 116.68 29.07Q118.89 29.07 120.16 27.50Q121.44 25.94 121.44 23.22Q121.44 20.43 120.15 18.90Q118.85 17.37 116.47 17.37Q114.40 17.37 114.40 18.73 M128.68 20.43Q127.97 20.43 127.47 19.92Q126.98 19.41 126.98 18.63Q126.98 17.85 127.47 17.35Q127.97 16.86 128.68 16.86Q129.39 16.86 129.87 17.35Q130.35 17.85 130.35 18.63Q130.35 19.41 129.87 19.92Q129.39 20.43 128.68 20.43M131.50 41L125.82 41Q125.31 41 125.31 40.63Q125.31 40.32 125.76 40.22L126.16 40.15Q127.01 40.01 127.25 39.73Q127.49 39.44 127.49 38.72L127.49 27.30Q127.49 26.69 127.30 26.46Q127.12 26.24 126.64 26.18L125.93 26.07Q125.48 26.04 125.48 25.70Q125.48 25.43 126.03 25.33Q127.08 25.16 127.73 24.78Q128.37 24.41 128.99 23.86Q129.29 23.56 129.50 23.56Q129.80 23.56 129.80 23.97L129.80 38.72Q129.80 39.44 130.01 39.74Q130.21 40.05 130.79 40.12L131.64 40.22Q132.01 40.29 132.01 40.59Q132.01 41 131.50 41 M139.12 41L133.07 41Q132.66 41 132.66 40.63Q132.66 40.29 133.03 40.22L133.51 40.15Q134.22 40.05 134.56 39.74Q134.90 39.44 134.90 38.72L134.90 19.24Q134.90 18.63 134.72 18.39Q134.53 18.15 134.05 18.12L133.27 18.02Q132.90 17.95 132.90 17.61Q132.90 17.27 133.27 17.20Q134.22 17 134.90 16.72Q135.58 16.45 136.02 16.18Q136.57 15.84 136.84 15.84Q137.21 15.84 137.21 16.38L137.21 38.72Q137.21 39.44 137.44 39.73Q137.66 40.01 138.37 40.12L139.15 40.22Q139.53 40.29 139.53 40.63Q139.53 41 139.12 41 M146.77 41.31Q145.03 41.31 143.66 40.13Q142.28 38.96 141.46 36.92Q140.65 34.88 140.65 32.36Q140.65 29.85 141.46 27.84Q142.28 25.84 143.67 24.65Q145.07 23.46 146.77 23.46Q148.50 23.46 149.88 24.65Q151.26 25.84 152.07 27.84Q152.89 29.85 152.89 32.36Q152.89 34.88 152.09 36.92Q151.29 38.96 149.90 40.13Q148.50 41.31 146.77 41.31M146.77 40.46Q150.30 40.46 150.30 32.36Q150.30 24.31 146.77 24.31Q143.23 24.31 143.23 32.36Q143.23 40.46 146.77 40.46 M158.74 41.31Q157.55 41.31 156.78 40.47Q156.02 39.64 156.02 37.74L156.02 25.02Q156.02 24.61 155.61 24.61L154.62 24.61Q154.08 24.61 154.08 24.20Q154.08 23.93 154.38 23.73Q155.51 22.95 156.19 22.04Q156.87 21.14 157.38 19.58Q157.61 18.87 157.95 18.87Q158.33 18.87 158.33 19.41L158.33 23.18Q158.33 23.66 158.80 23.66L161.01 23.66Q161.56 23.66 161.56 24.14Q161.56 24.61 161.01 24.61L158.80 24.61Q158.33 24.61 158.33 25.09L158.33 37.77Q158.33 38.52 158.57 38.94Q158.80 39.37 159.45 39.37Q160.16 39.37 160.62 38.65Q161.08 37.94 161.22 36.34Q161.29 35.87 161.66 35.87Q162.07 35.87 162.07 36.38Q161.97 38.99 161 40.15Q160.03 41.31 158.74 41.31" fill="#14110c"/>
</svg>
