<svg width="288" height="64" viewBox="0 0 288 64" fill="none" xmlns="http://www.w3.org/2000/svg">
  <title>Zap Pilot — Disciplined Portfolio Autopilot</title>
  <g transform="translate(6 8) scale(0.75)">
    <g stroke="#d4c5a3" stroke-linecap="round">
      <path d="M16.5 49.5 A24 24 0 1 1 47.5 49.5" fill="none" stroke-width="3"/>
      <g stroke-width="1.4" stroke-opacity="0.4">
        <line x1="32" y1="8" x2="32" y2="12.5"/>
        <line x1="45.8" y1="12.3" x2="43.5" y2="15.6"/>
        <line x1="18.2" y1="12.3" x2="20.5" y2="15.6"/>
        <line x1="54.6" y1="23.8" x2="50.8" y2="25.2"/>
        <line x1="9.4" y1="23.8" x2="13.2" y2="25.2"/>
      </g>
      <line x1="32" y1="32" x2="42.5" y2="13.8" stroke-width="2.6"/>
    </g>
    <circle cx="32" cy="32" r="3" fill="#d4c5a3"/>
  </g>
  <path d="M72.92 34L63.20 34Q62.78 34 62.62 33.76Q62.45 33.52 62.63 33.13L71.30 13.78Q71.48 13.30 70.97 13.30L67.97 13.30Q66.86 13.30 65.94 14Q65.03 14.71 64.43 16.69L63.98 18.19Q63.89 18.58 63.56 18.58Q63.11 18.58 63.17 18.07L63.71 12.49Q63.77 11.80 64.22 11.80Q64.43 11.80 64.61 11.95Q64.79 12.10 65.22 12.25Q65.66 12.40 66.62 12.40L73.25 12.40Q73.67 12.40 73.83 12.63Q74 12.85 73.82 13.27L65.15 32.62Q64.97 33.10 65.48 33.10L68.81 33.10Q69.65 33.10 70.46 32.86Q71.27 32.62 71.90 31.86Q72.53 31.09 72.83 29.56L73.22 27.55Q73.31 27.16 73.67 27.16Q74.09 27.16 74.03 27.67L73.67 33.31Q73.61 34 72.92 34 M78.41 34.27Q77.15 34.27 76.34 33.48Q75.53 32.68 75.53 31.36Q75.53 30.07 76.34 28.91Q77.15 27.76 78.56 26.83Q79.97 25.90 81.77 25.33Q82.16 25.21 82.16 24.82L82.16 22.09Q82.16 20.65 81.71 20.04Q81.26 19.42 80.48 19.42Q79.73 19.42 79.12 20.09Q78.50 20.77 78.23 22.36Q78.08 23.32 77.59 23.76Q77.09 24.19 76.58 24.19Q75.74 24.19 75.74 23.35Q75.74 22.48 76.23 21.63Q76.73 20.77 77.54 20.07Q78.35 19.36 79.31 18.94Q80.27 18.52 81.23 18.52Q84.20 18.52 84.20 21.97L84.20 31.15Q84.20 32.41 84.83 32.41Q85.22 32.41 85.55 31.89Q85.88 31.36 85.88 30.10Q85.88 29.62 86.27 29.62Q86.63 29.62 86.63 30.13Q86.63 32.32 85.87 33.30Q85.10 34.27 84.14 34.27Q83.42 34.27 83 33.69Q82.58 33.10 82.43 32.29Q82.40 31.99 82.17 31.98Q81.95 31.96 81.74 32.26Q81.02 33.25 80.27 33.76Q79.52 34.27 78.41 34.27M79.22 32.89Q80 32.89 80.66 32.34Q81.32 31.78 81.74 30.85Q82.16 29.92 82.16 28.75L82.16 26.56Q82.16 25.99 81.53 26.23Q79.70 26.89 78.70 28.05Q77.69 29.20 77.69 30.82Q77.69 32.89 79.22 32.89 M93.02 40.15L87.59 40.15Q87.14 40.15 87.14 39.82Q87.14 39.49 87.53 39.46L87.95 39.40Q88.58 39.31 88.78 39.04Q88.97 38.77 88.97 38.14L88.97 21.91Q88.97 21.37 88.81 21.18Q88.64 20.98 88.22 20.92L87.59 20.83Q87.20 20.80 87.20 20.50Q87.20 20.26 87.68 20.17Q88.61 20.02 89.11 19.69Q89.60 19.36 90.14 18.88Q90.41 18.61 90.59 18.61Q90.86 18.61 90.86 18.97L90.86 19.90Q90.86 20.11 91.04 20.19Q91.22 20.26 91.46 20.02L91.79 19.69Q92.39 19.09 93.02 18.80Q93.65 18.52 94.46 18.52Q95.84 18.52 96.91 19.44Q97.97 20.35 98.59 21.97Q99.20 23.59 99.20 25.78Q99.20 28.27 98.42 30.19Q97.64 32.11 96.28 33.19Q94.91 34.27 93.14 34.27Q92.24 34.27 91.55 33.94Q91.01 33.70 91.01 34.27L91.01 38.14Q91.01 38.77 91.20 38.99Q91.40 39.22 92.03 39.31L93.14 39.46Q93.47 39.52 93.47 39.79Q93.47 40.15 93.02 40.15M93.23 33.52Q94.91 33.52 95.94 31.54Q96.98 29.56 96.98 26.20Q96.98 23.11 96.08 21.49Q95.18 19.87 93.53 19.87Q92.51 19.87 91.76 20.71Q91.01 21.55 91.01 23.05L91.01 30.61Q91.01 31.96 91.63 32.74Q92.24 33.52 93.23 33.52  M112.31 34L106.22 34Q105.77 34 105.77 33.67Q105.77 33.40 106.16 33.31L106.85 33.19Q107.48 33.07 107.67 32.86Q107.87 32.65 107.87 32.02L107.87 14.38Q107.87 13.75 107.67 13.54Q107.48 13.33 106.85 13.21L106.16 13.09Q105.77 13 105.77 12.73Q105.77 12.40 106.22 12.40L112.49 12.40Q114.26 12.40 115.61 13.16Q116.96 13.93 117.71 15.28Q118.46 16.63 118.46 18.40Q118.46 20.11 117.71 21.43Q116.96 22.75 115.64 23.48Q114.32 24.22 112.58 24.22L110.42 24.22Q110 24.22 110 24.64L110 31.90Q110 32.53 110.24 32.76Q110.48 32.98 111.32 33.13L112.43 33.31Q112.76 33.37 112.76 33.64Q112.76 34 112.31 34M110 14.35L110 21.82Q110 23.47 112.01 23.47Q113.96 23.47 115.08 22.09Q116.21 20.71 116.21 18.31Q116.21 15.85 115.07 14.50Q113.93 13.15 111.83 13.15Q110 13.15 110 14.35 M122.60 15.85Q121.97 15.85 121.53 15.40Q121.10 14.95 121.10 14.26Q121.10 13.57 121.53 13.14Q121.97 12.70 122.60 12.70Q123.23 12.70 123.65 13.14Q124.07 13.57 124.07 14.26Q124.07 14.95 123.65 15.40Q123.23 15.85 122.60 15.85M125.09 34L120.08 34Q119.63 34 119.63 33.67Q119.63 33.40 120.02 33.31L120.38 33.25Q121.13 33.13 121.34 32.88Q121.55 32.62 121.55 31.99L121.55 21.91Q121.55 21.37 121.38 21.18Q121.22 20.98 120.80 20.92L120.17 20.83Q119.78 20.80 119.78 20.50Q119.78 20.26 120.26 20.17Q121.19 20.02 121.76 19.69Q122.33 19.36 122.87 18.88Q123.14 18.61 123.32 18.61Q123.59 18.61 123.59 18.97L123.59 31.99Q123.59 32.62 123.77 32.89Q123.95 33.16 124.46 33.22L125.21 33.31Q125.54 33.37 125.54 33.64Q125.54 34 125.09 34 M131.81 34L126.47 34Q126.11 34 126.11 33.67Q126.11 33.37 126.44 33.31L126.86 33.25Q127.49 33.16 127.79 32.89Q128.09 32.62 128.09 31.99L128.09 14.80Q128.09 14.26 127.92 14.05Q127.76 13.84 127.34 13.81L126.65 13.72Q126.32 13.66 126.32 13.36Q126.32 13.06 126.65 13Q127.49 12.82 128.09 12.58Q128.69 12.34 129.08 12.10Q129.56 11.80 129.80 11.80Q130.13 11.80 130.13 12.28L130.13 31.99Q130.13 32.62 130.32 32.88Q130.52 33.13 131.15 33.22L131.84 33.31Q132.17 33.37 132.17 33.67Q132.17 34 131.81 34 M138.56 34.27Q137.03 34.27 135.81 33.23Q134.60 32.20 133.88 30.40Q133.16 28.60 133.16 26.38Q133.16 24.16 133.88 22.39Q134.60 20.62 135.83 19.57Q137.06 18.52 138.56 18.52Q140.09 18.52 141.31 19.57Q142.52 20.62 143.24 22.39Q143.96 24.16 143.96 26.38Q143.96 28.60 143.25 30.40Q142.55 32.20 141.32 33.23Q140.09 34.27 138.56 34.27M138.56 33.52Q141.68 33.52 141.68 26.38Q141.68 19.27 138.56 19.27Q135.44 19.27 135.44 26.38Q135.44 33.52 138.56 33.52 M149.12 34.27Q148.07 34.27 147.40 33.53Q146.72 32.80 146.72 31.12L146.72 19.90Q146.72 19.54 146.36 19.54L145.49 19.54Q145.01 19.54 145.01 19.18Q145.01 18.94 145.28 18.76Q146.27 18.07 146.87 17.28Q147.47 16.48 147.92 15.10Q148.13 14.47 148.43 14.47Q148.76 14.47 148.76 14.95L148.76 18.28Q148.76 18.70 149.18 18.70L151.13 18.70Q151.61 18.70 151.61 19.12Q151.61 19.54 151.13 19.54L149.18 19.54Q148.76 19.54 148.76 19.96L148.76 31.15Q148.76 31.81 148.97 32.19Q149.18 32.56 149.75 32.56Q150.38 32.56 150.78 31.93Q151.19 31.30 151.31 29.89Q151.37 29.47 151.70 29.47Q152.06 29.47 152.06 29.92Q151.97 32.23 151.12 33.25Q150.26 34.27 149.12 34.27" fill="#f4f4f5"/>
  <path d="M65.44 51L63.71 51L63.71 44.80L65.44 44.80Q66.05 44.80 66.50 45.03Q66.95 45.26 67.20 45.69Q67.45 46.11 67.45 46.69L67.45 49.10Q67.45 49.67 67.20 50.10Q66.95 50.53 66.50 50.77Q66.05 51 65.44 51M64.62 45.63L64.62 50.17L65.44 50.17Q65.95 50.17 66.24 49.88Q66.54 49.60 66.54 49.10L66.54 46.69Q66.54 46.20 66.24 45.91Q65.95 45.63 65.44 45.63 M74.17 51L70.73 51L70.73 50.18L71.98 50.18L71.98 45.61L70.73 45.61L70.73 44.80L74.17 44.80L74.17 45.61L72.92 45.61L72.92 50.18L74.17 50.18 M79.38 51.09Q78.75 51.09 78.30 50.88Q77.85 50.67 77.60 50.28Q77.35 49.90 77.35 49.36L78.26 49.36Q78.26 49.78 78.56 50.03Q78.86 50.27 79.38 50.27Q79.88 50.27 80.16 50.03Q80.44 49.79 80.44 49.38Q80.44 49.03 80.25 48.77Q80.06 48.52 79.70 48.42L78.92 48.20Q78.24 48 77.87 47.53Q77.50 47.06 77.50 46.40Q77.50 45.89 77.73 45.51Q77.96 45.13 78.38 44.91Q78.81 44.70 79.38 44.70Q80.23 44.70 80.75 45.16Q81.26 45.62 81.27 46.39L80.35 46.39Q80.35 45.98 80.09 45.75Q79.83 45.52 79.37 45.52Q78.92 45.52 78.66 45.73Q78.41 45.95 78.41 46.34Q78.41 46.69 78.60 46.95Q78.79 47.20 79.15 47.30L79.94 47.54Q80.62 47.73 80.98 48.20Q81.35 48.68 81.35 49.34Q81.35 49.86 81.10 50.26Q80.85 50.65 80.41 50.87Q79.97 51.09 79.38 51.09 M86.28 51.09Q85.71 51.09 85.28 50.87Q84.85 50.65 84.61 50.24Q84.38 49.83 84.38 49.27L84.38 46.52Q84.38 45.96 84.61 45.55Q84.85 45.14 85.28 44.93Q85.71 44.71 86.28 44.71Q86.86 44.71 87.29 44.93Q87.71 45.15 87.95 45.56Q88.18 45.96 88.18 46.52L87.26 46.52Q87.26 46.04 87.01 45.78Q86.75 45.53 86.28 45.53Q85.82 45.53 85.56 45.78Q85.30 46.04 85.30 46.51L85.30 49.27Q85.30 49.75 85.56 50.01Q85.82 50.27 86.28 50.27Q86.75 50.27 87.01 50.01Q87.26 49.75 87.26 49.27L88.18 49.27Q88.18 49.83 87.95 50.23Q87.71 50.64 87.29 50.86Q86.86 51.09 86.28 51.09 M94.87 51L91.43 51L91.43 50.18L92.68 50.18L92.68 45.61L91.43 45.61L91.43 44.80L94.87 44.80L94.87 45.61L93.62 45.61L93.62 50.18L94.87 50.18 M99.13 51L98.21 51L98.21 44.80L100.25 44.80Q100.85 44.80 101.30 45.02Q101.74 45.25 101.98 45.67Q102.23 46.10 102.23 46.66Q102.23 47.23 101.98 47.65Q101.73 48.08 101.29 48.31Q100.85 48.53 100.25 48.53L99.13 48.53L99.13 51M99.13 45.62L99.13 47.71L100.25 47.71Q100.72 47.71 101.01 47.43Q101.29 47.14 101.29 46.66Q101.29 46.18 101.01 45.90Q100.72 45.62 100.25 45.62 M108.96 51L105.33 51L105.33 44.80L106.24 44.80L106.24 50.16L108.96 50.16 M115.57 51L112.13 51L112.13 50.18L113.38 50.18L113.38 45.61L112.13 45.61L112.13 44.80L115.57 44.80L115.57 45.61L114.32 45.61L114.32 50.18L115.57 50.18 M119.74 51L118.89 51L118.89 44.80L120.04 44.80L121.85 49.95Q121.84 49.71 121.81 49.37Q121.79 49.03 121.77 48.66Q121.76 48.30 121.76 48L121.76 44.80L122.61 44.80L122.61 51L121.46 51L119.65 45.84Q119.67 46.06 119.69 46.39Q119.71 46.72 119.73 47.08Q119.74 47.44 119.74 47.74 M129.55 51L125.90 51L125.90 44.80L129.55 44.80L129.55 45.61L126.80 45.61L126.80 47.37L129.25 47.37L129.25 48.18L126.80 48.18L126.80 50.18L129.55 50.18 M134.44 51L132.71 51L132.71 44.80L134.44 44.80Q135.05 44.80 135.50 45.03Q135.95 45.26 136.20 45.69Q136.45 46.11 136.45 46.69L136.45 49.10Q136.45 49.67 136.20 50.10Q135.95 50.53 135.50 50.77Q135.05 51 134.44 51M133.62 45.63L133.62 50.17L134.44 50.17Q134.95 50.17 135.24 49.88Q135.54 49.60 135.54 49.10L135.54 46.69Q135.54 46.20 135.24 45.91Q134.95 45.63 134.44 45.63  M147.43 51L146.51 51L146.51 44.80L148.55 44.80Q149.15 44.80 149.60 45.02Q150.04 45.25 150.28 45.67Q150.53 46.10 150.53 46.66Q150.53 47.23 150.28 47.65Q150.03 48.08 149.59 48.31Q149.15 48.53 148.55 48.53L147.43 48.53L147.43 51M147.43 45.62L147.43 47.71L148.55 47.71Q149.02 47.71 149.31 47.43Q149.59 47.14 149.59 46.66Q149.59 46.18 149.31 45.90Q149.02 45.62 148.55 45.62 M155.25 51.09Q154.67 51.09 154.25 50.87Q153.83 50.65 153.61 50.24Q153.38 49.83 153.38 49.27L153.38 46.52Q153.38 45.96 153.61 45.55Q153.83 45.14 154.25 44.93Q154.67 44.71 155.25 44.71Q155.83 44.71 156.25 44.93Q156.67 45.14 156.89 45.55Q157.12 45.96 157.12 46.51L157.12 49.27Q157.12 49.83 156.89 50.24Q156.67 50.65 156.25 50.87Q155.83 51.09 155.25 51.09M155.25 50.27Q155.72 50.27 155.96 50.01Q156.20 49.75 156.20 49.27L156.20 46.52Q156.20 46.04 155.96 45.78Q155.72 45.53 155.25 45.53Q154.79 45.53 154.54 45.78Q154.30 46.04 154.30 46.52L154.30 49.27Q154.30 49.75 154.54 50.01Q154.79 50.27 155.25 50.27 M161.23 51L160.31 51L160.31 44.80L162.26 44.80Q162.85 44.80 163.28 45.02Q163.71 45.25 163.96 45.65Q164.20 46.06 164.20 46.61Q164.20 47.23 163.88 47.69Q163.56 48.14 163.02 48.33L164.28 51L163.24 51L162.11 48.45L161.23 48.45L161.23 51M161.23 45.61L161.23 47.64L162.26 47.64Q162.72 47.64 162.99 47.37Q163.26 47.09 163.26 46.63Q163.26 46.16 162.99 45.88Q162.72 45.61 162.26 45.61 M169.51 51L168.59 51L168.59 45.64L166.93 45.64L166.93 44.79L171.17 44.79L171.17 45.64L169.51 45.64 M175.06 51L174.15 51L174.15 44.79L177.90 44.79L177.90 45.64L175.04 45.64L175.04 47.49L177.68 47.49L177.68 48.34L175.06 48.34 M182.85 51.09Q182.27 51.09 181.85 50.87Q181.43 50.65 181.21 50.24Q180.98 49.83 180.98 49.27L180.98 46.52Q180.98 45.96 181.21 45.55Q181.43 45.14 181.85 44.93Q182.27 44.71 182.85 44.71Q183.43 44.71 183.85 44.93Q184.27 45.14 184.49 45.55Q184.72 45.96 184.72 46.51L184.72 49.27Q184.72 49.83 184.49 50.24Q184.27 50.65 183.85 50.87Q183.43 51.09 182.85 51.09M182.85 50.27Q183.32 50.27 183.56 50.01Q183.80 49.75 183.80 49.27L183.80 46.52Q183.80 46.04 183.56 45.78Q183.32 45.53 182.85 45.53Q182.39 45.53 182.14 45.78Q181.90 46.04 181.90 46.52L181.90 49.27Q181.90 49.75 182.14 50.01Q182.39 50.27 182.85 50.27 M191.76 51L188.13 51L188.13 44.80L189.04 44.80L189.04 50.16L191.76 50.16 M198.37 51L194.93 51L194.93 50.18L196.18 50.18L196.18 45.61L194.93 45.61L194.93 44.80L198.37 44.80L198.37 45.61L197.12 45.61L197.12 50.18L198.37 50.18 M203.55 51.09Q202.97 51.09 202.55 50.87Q202.13 50.65 201.91 50.24Q201.68 49.83 201.68 49.27L201.68 46.52Q201.68 45.96 201.91 45.55Q202.13 45.14 202.55 44.93Q202.97 44.71 203.55 44.71Q204.13 44.71 204.55 44.93Q204.97 45.14 205.19 45.55Q205.42 45.96 205.42 46.51L205.42 49.27Q205.42 49.83 205.19 50.24Q204.97 50.65 204.55 50.87Q204.13 51.09 203.55 51.09M203.55 50.27Q204.02 50.27 204.26 50.01Q204.50 49.75 204.50 49.27L204.50 46.52Q204.50 46.04 204.26 45.78Q204.02 45.53 203.55 45.53Q203.09 45.53 202.84 45.78Q202.60 46.04 202.60 46.52L202.60 49.27Q202.60 49.75 202.84 50.01Q203.09 50.27 203.55 50.27  M216.10 51L215.17 51L216.75 44.80L217.95 44.80L219.53 51L218.61 51L218.23 49.43L216.47 49.43L216.10 51M217.07 46.87L216.64 48.67L218.06 48.67L217.63 46.88Q217.52 46.40 217.45 46.05Q217.38 45.70 217.35 45.57Q217.32 45.70 217.26 46.05Q217.19 46.40 217.07 46.87 M224.25 51.09Q223.36 51.09 222.87 50.60Q222.39 50.11 222.39 49.27L222.39 44.80L223.31 44.80L223.31 49.27Q223.31 49.73 223.54 50.01Q223.77 50.28 224.25 50.28Q224.72 50.28 224.96 50.01Q225.19 49.73 225.19 49.27L225.19 44.80L226.11 44.80L226.11 49.27Q226.11 50.11 225.63 50.60Q225.14 51.09 224.25 51.09 M231.61 51L230.69 51L230.69 45.64L229.03 45.64L229.03 44.79L233.27 44.79L233.27 45.64L231.61 45.64 M238.05 51.09Q237.47 51.09 237.05 50.87Q236.63 50.65 236.41 50.24Q236.18 49.83 236.18 49.27L236.18 46.52Q236.18 45.96 236.41 45.55Q236.63 45.14 237.05 44.93Q237.47 44.71 238.05 44.71Q238.63 44.71 239.05 44.93Q239.47 45.14 239.69 45.55Q239.92 45.96 239.92 46.51L239.92 49.27Q239.92 49.83 239.69 50.24Q239.47 50.65 239.05 50.87Q238.63 51.09 238.05 51.09M238.05 50.27Q238.52 50.27 238.76 50.01Q239 49.75 239 49.27L239 46.52Q239 46.04 238.76 45.78Q238.52 45.53 238.05 45.53Q237.59 45.53 237.34 45.78Q237.10 46.04 237.10 46.52L237.10 49.27Q237.10 49.75 237.34 50.01Q237.59 50.27 238.05 50.27 M244.03 51L243.11 51L243.11 44.80L245.15 44.80Q245.75 44.80 246.20 45.02Q246.64 45.25 246.88 45.67Q247.13 46.10 247.13 46.66Q247.13 47.23 246.88 47.65Q246.63 48.08 246.19 48.31Q245.75 48.53 245.15 48.53L244.03 48.53L244.03 51M244.03 45.62L244.03 47.71L245.15 47.71Q245.62 47.71 245.91 47.43Q246.19 47.14 246.19 46.66Q246.19 46.18 245.91 45.90Q245.62 45.62 245.15 45.62 M253.57 51L250.13 51L250.13 50.18L251.38 50.18L251.38 45.61L250.13 45.61L250.13 44.80L253.57 44.80L253.57 45.61L252.32 45.61L252.32 50.18L253.57 50.18 M260.76 51L257.13 51L257.13 44.80L258.04 44.80L258.04 50.16L260.76 50.16 M265.65 51.09Q265.07 51.09 264.65 50.87Q264.23 50.65 264.01 50.24Q263.78 49.83 263.78 49.27L263.78 46.52Q263.78 45.96 264.01 45.55Q264.23 45.14 264.65 44.93Q265.07 44.71 265.65 44.71Q266.23 44.71 266.65 44.93Q267.07 45.14 267.29 45.55Q267.52 45.96 267.52 46.51L267.52 49.27Q267.52 49.83 267.29 50.24Q267.07 50.65 266.65 50.87Q266.23 51.09 265.65 51.09M265.65 50.27Q266.12 50.27 266.36 50.01Q266.60 49.75 266.60 49.27L266.60 46.52Q266.60 46.04 266.36 45.78Q266.12 45.53 265.65 45.53Q265.19 45.53 264.94 45.78Q264.70 46.04 264.70 46.52L264.70 49.27Q264.70 49.75 264.94 50.01Q265.19 50.27 265.65 50.27 M273.01 51L272.09 51L272.09 45.64L270.43 45.64L270.43 44.79L274.67 44.79L274.67 45.64L273.01 45.64" fill="#6a5e44"/>
</svg>
